<svg width="46" height="46" viewBox="0 0 46 46" fill="none" xmlns="http://www.w3.org/2000/svg">
<path d="M20.625 34.375H25.2083V25.2083H34.375V20.625H25.2083V11.4583H20.625V20.625H11.4583V25.2083H20.625V34.375ZM22.9167 45.8333C19.7465 45.8333 16.7674 45.2413 13.9792 44.0573C11.191 42.8351 8.76563 41.1927 6.70313 39.1302C4.64063 37.0677 2.99826 34.6424 1.77604 31.8542C0.592014 29.066 0 26.0868 0 22.9167C0 19.7465 0.592014 16.7674 1.77604 13.9792C2.99826 11.191 4.64063 8.76562 6.70313 6.70312C8.76563 4.64062 11.191 3.01736 13.9792 1.83333C16.7674 0.61111 19.7465 0 22.9167 0C26.0868 0 29.066 0.61111 31.8542 1.83333C34.6424 3.01736 37.0677 4.64062 39.1302 6.70312C41.1927 8.76562 42.816 11.191 44 13.9792C45.2222 16.7674 45.8333 19.7465 45.8333 22.9167C45.8333 26.0868 45.2222 29.066 44 31.8542C42.816 34.6424 41.1927 37.0677 39.1302 39.1302C37.0677 41.1927 34.6424 42.8351 31.8542 44.0573C29.066 45.2413 26.0868 45.8333 22.9167 45.8333ZM22.9167 41.25C28.0347 41.25 32.3698 39.474 35.9219 35.9219C39.474 32.3698 41.25 28.0347 41.25 22.9167C41.25 17.7986 39.474 13.4635 35.9219 9.91146C32.3698 6.35937 28.0347 4.58333 22.9167 4.58333C17.7986 4.58333 13.4635 6.35937 9.91146 9.91146C6.35937 13.4635 4.58333 17.7986 4.58333 22.9167C4.58333 28.0347 6.35937 32.3698 9.91146 35.9219C13.4635 39.474 17.7986 41.25 22.9167 41.25Z" fill="#098842"/>
</svg>
