<svg width="18" height="17" viewBox="0 0 18 17" fill="none" xmlns="http://www.w3.org/2000/svg">
<path d="M7.55978 0.679932C6.96741 0.679932 6.47978 1.14048 6.47978 1.69993V2.37993H3.65532C3.63511 2.37674 3.61464 2.37519 3.59415 2.37528C3.57671 2.37564 3.55932 2.37719 3.54212 2.37993H2.87978C2.83207 2.37929 2.78471 2.38762 2.74044 2.40442C2.69617 2.42122 2.65588 2.44616 2.62191 2.4778C2.58793 2.50943 2.56096 2.54713 2.54254 2.5887C2.52413 2.63026 2.51465 2.67487 2.51465 2.71993C2.51465 2.76499 2.52413 2.8096 2.54254 2.85117C2.56096 2.89273 2.58793 2.93043 2.62191 2.96207C2.65588 2.9937 2.69617 3.01864 2.74044 3.03544C2.78471 3.05225 2.83207 3.06057 2.87978 3.05993H3.23978V15.2999C3.23978 15.8594 3.72741 16.3199 4.31978 16.3199H13.6798C14.2721 16.3199 14.7598 15.8594 14.7598 15.2999V3.05993H15.1198C15.1675 3.06057 15.2148 3.05225 15.2591 3.03544C15.3034 3.01864 15.3437 2.9937 15.3776 2.96207C15.4116 2.93043 15.4386 2.89273 15.457 2.85117C15.4754 2.8096 15.4849 2.76499 15.4849 2.71993C15.4849 2.67487 15.4754 2.63026 15.457 2.5887C15.4386 2.54713 15.4116 2.50943 15.3776 2.4778C15.3437 2.44616 15.3034 2.42122 15.2591 2.40442C15.2148 2.38762 15.1675 2.37929 15.1198 2.37993H14.4602C14.4214 2.37386 14.3817 2.37386 14.3428 2.37993H11.5198V1.69993C11.5198 1.14048 11.0321 0.679932 10.4398 0.679932H7.55978ZM7.55978 1.35993H10.4398C10.6394 1.35993 10.7998 1.51139 10.7998 1.69993V2.37993H7.19978V1.69993C7.19978 1.51139 7.36014 1.35993 7.55978 1.35993ZM3.95978 3.05993H6.77931C6.81818 3.066 6.85785 3.066 6.89673 3.05993H11.0993C11.1382 3.066 11.1779 3.066 11.2167 3.05993H14.0398V15.2999C14.0398 15.4885 13.8794 15.6399 13.6798 15.6399H4.31978C4.12014 15.6399 3.95978 15.4885 3.95978 15.2999V3.05993ZM6.83415 4.75528C6.7388 4.75669 6.64793 4.79377 6.58149 4.85839C6.51505 4.923 6.47847 5.00987 6.47978 5.09993V13.5999C6.4791 13.645 6.48791 13.6897 6.5057 13.7315C6.52349 13.7733 6.5499 13.8114 6.5834 13.8435C6.61689 13.8756 6.65681 13.901 6.70082 13.9184C6.74483 13.9358 6.79207 13.9448 6.83978 13.9448C6.88749 13.9448 6.93472 13.9358 6.97873 13.9184C7.02274 13.901 7.06266 13.8756 7.09615 13.8435C7.12965 13.8114 7.15606 13.7733 7.17385 13.7315C7.19164 13.6897 7.20045 13.645 7.19978 13.5999V5.09993C7.20044 5.05444 7.19142 5.00929 7.17327 4.96715C7.15512 4.92501 7.12821 4.88674 7.09411 4.8546C7.06002 4.82247 7.01944 4.79712 6.97479 4.78006C6.93014 4.763 6.88231 4.75457 6.83415 4.75528ZM8.99415 4.75528C8.8988 4.75669 8.80793 4.79377 8.74149 4.85839C8.67505 4.923 8.63847 5.00987 8.63978 5.09993V13.5999C8.6391 13.645 8.64791 13.6897 8.6657 13.7315C8.68349 13.7733 8.7099 13.8114 8.7434 13.8435C8.77689 13.8756 8.81681 13.901 8.86082 13.9184C8.90483 13.9358 8.95207 13.9448 8.99978 13.9448C9.04748 13.9448 9.09472 13.9358 9.13873 13.9184C9.18274 13.901 9.22266 13.8756 9.25615 13.8435C9.28965 13.8114 9.31606 13.7733 9.33385 13.7315C9.35164 13.6897 9.36045 13.645 9.35978 13.5999V5.09993C9.36044 5.05444 9.35142 5.00929 9.33327 4.96715C9.31512 4.92501 9.28821 4.88674 9.25411 4.8546C9.22002 4.82247 9.17944 4.79712 9.13479 4.78006C9.09014 4.763 9.04231 4.75457 8.99415 4.75528ZM11.1542 4.75528C11.0588 4.75669 10.9679 4.79377 10.9015 4.85839C10.8351 4.923 10.7985 5.00987 10.7998 5.09993V13.5999C10.7991 13.645 10.8079 13.6897 10.8257 13.7315C10.8435 13.7733 10.8699 13.8114 10.9034 13.8435C10.9369 13.8756 10.9768 13.901 11.0208 13.9184C11.0648 13.9358 11.1121 13.9448 11.1598 13.9448C11.2075 13.9448 11.2547 13.9358 11.2987 13.9184C11.3427 13.901 11.3827 13.8756 11.4162 13.8435C11.4496 13.8114 11.4761 13.7733 11.4938 13.7315C11.5116 13.6897 11.5205 13.645 11.5198 13.5999V5.09993C11.5204 5.05444 11.5114 5.00929 11.4933 4.96715C11.4751 4.92501 11.4482 4.88674 11.4141 4.8546C11.38 4.82247 11.3394 4.79712 11.2948 4.78006C11.2501 4.763 11.2023 4.75457 11.1542 4.75528Z" fill="#919191"/>
</svg>
