<svg width="42" height="31" viewBox="0 0 42 31" fill="none" xmlns="http://www.w3.org/2000/svg">
<path d="M24.5325 1.01048C24.7528 1.10931 24.9731 1.20814 25.2001 1.30996C25.9129 1.63093 26.6224 1.95851 27.3321 2.28627C27.8244 2.5094 28.3168 2.73205 28.8095 2.95422C29.8022 3.40238 30.794 3.85277 31.785 4.30473C33.0984 4.90214 34.4173 5.48598 35.7399 6.06276C36.1169 6.22717 36.4938 6.39158 36.8822 6.56097C37.5857 6.86718 38.2893 7.17336 38.9929 7.4795C39.3025 7.61516 39.6121 7.75081 39.931 7.89058C40.1999 8.00785 40.4688 8.12512 40.7458 8.24594C41.3544 8.5342 41.3544 8.5342 41.68 8.85983C41.6933 9.51094 41.6939 10.1625 41.68 10.8136C40.6054 11.3509 39.5309 11.8881 38.4238 12.4417C38.4173 12.8886 38.4108 13.3356 38.4042 13.796C38.3794 15.454 38.3505 17.1119 38.3204 18.7698C38.3079 19.4874 38.2966 20.205 38.2864 20.9226C38.2715 21.954 38.2526 22.9853 38.233 24.0167C38.2292 24.3376 38.2254 24.6585 38.2216 24.9891C38.2151 25.2889 38.2086 25.5887 38.202 25.8976C38.1976 26.1608 38.1933 26.424 38.1888 26.6952C38.0893 27.4914 37.844 28.031 37.4469 28.723C36.7958 28.7368 36.1442 28.7362 35.4931 28.723C34.9909 28.2207 35.1146 27.7447 35.1006 27.0451C35.0909 26.6149 35.0909 26.6149 35.081 26.176C35.0755 25.8643 35.0701 25.5525 35.0645 25.2314C35.0577 24.9138 35.0509 24.5963 35.044 24.2691C35.0226 23.2505 35.0034 22.2319 34.9843 21.2132C34.9703 20.5244 34.9561 19.8357 34.9417 19.1469C34.9068 17.4546 34.8736 15.7622 34.8419 14.0698C34.627 14.0698 34.4121 14.0698 34.1906 14.0698C34.194 14.3028 34.1974 14.5357 34.201 14.7758C34.2146 15.8429 34.223 16.9101 34.2313 17.9773C34.2368 18.3438 34.2422 18.7102 34.2479 19.0878C34.2656 22.117 34.1526 24.5155 31.9939 26.8048C27.6916 30.4137 22.2399 30.3953 16.9325 30.0255C13.823 29.6011 10.9602 28.1242 8.81223 25.833C7.21953 23.4199 7.40712 20.7675 7.44867 17.9773C7.45161 17.6008 7.45455 17.2243 7.45758 16.8364C7.4652 15.9141 7.47587 14.992 7.48938 14.0698C7.30639 14.0132 7.1234 13.9567 6.93487 13.8983C5.24006 13.3567 3.67266 12.7139 2.09621 11.8922C1.892 11.7879 1.68779 11.6836 1.4774 11.5761C0.983991 11.3238 0.49185 11.0689 0 10.8136C0 10.1688 0 9.5241 0 8.85983C3.37729 7.11189 6.81591 5.57538 10.3182 4.09756C11.0618 3.78254 11.8052 3.4671 12.5483 3.15115C13.0271 2.94786 13.5061 2.74527 13.9854 2.54343C15.5862 1.86624 17.1519 1.13576 18.6978 0.339676C20.8347 -0.351801 22.5609 0.082743 24.5325 1.01048ZM19.0654 3.5964C18.7656 3.72679 18.4658 3.85717 18.1568 3.99151C17.8326 4.13396 17.5083 4.27642 17.1742 4.42319C16.6769 4.64001 16.6769 4.64001 16.1695 4.86122C15.1073 5.32465 14.0458 5.78972 12.9843 6.25483C12.2657 6.56869 11.547 6.88244 10.8283 7.19609C9.06353 7.96651 7.29936 8.73828 5.53562 9.51108C5.53562 9.72599 5.53562 9.9409 5.53562 10.1623C7.39439 10.987 9.254 11.8098 11.1144 12.6307C11.7466 12.91 12.3786 13.1899 13.0103 13.4703C13.9207 13.8742 14.8318 14.2762 15.7432 14.6778C16.0235 14.8027 16.3037 14.9275 16.5925 15.0562C19.3325 16.396 19.3325 16.396 22.2614 16.3901C22.6314 16.2229 23.0014 16.0558 23.3827 15.8837C23.5818 15.796 23.781 15.7084 23.9862 15.618C24.6161 15.339 25.2413 15.0507 25.8668 14.7618C26.2954 14.5699 26.7243 14.3787 27.1534 14.1881C28.2 13.7217 29.2425 13.2469 30.2831 12.7673C30.2831 12.6599 30.2831 12.5524 30.2831 12.4417C30.0022 12.4039 29.7212 12.3662 29.4318 12.3273C28.3885 12.1867 27.3453 12.0452 26.3022 11.9031C25.851 11.8418 25.3996 11.7809 24.9482 11.7203C24.2991 11.633 23.6501 11.5445 23.0011 11.4559C22.6106 11.4031 22.2201 11.3502 21.8177 11.2957C20.84 11.1392 20.84 11.1392 19.8631 10.8136C19.8631 10.1688 19.8631 9.5241 19.8631 8.85983C22.8661 8.74476 25.7706 9.10641 28.7364 9.51108C29.432 9.60504 30.1277 9.69829 30.8236 9.7898C31.4515 9.87247 32.079 9.95754 32.7066 10.0428C33.8615 10.162 34.9842 10.1832 36.1444 10.1623C36.1444 9.94741 36.1444 9.7325 36.1444 9.51108C34.6394 8.84474 33.1343 8.17897 31.6289 7.51368C31.1185 7.28806 30.6083 7.06228 30.0981 6.83636C24.6613 3.81831 24.6613 3.81831 19.0654 3.5964ZM10.42 15.3723C10.3915 16.4713 10.3742 17.5701 10.3589 18.6693C10.3508 18.9791 10.3426 19.2888 10.3341 19.608C10.3157 21.3806 10.3876 22.637 11.3969 24.1642C13.9884 26.7557 17.6452 27.3107 21.1656 27.4205C24.2631 27.3229 27.055 26.5826 29.6319 24.8155C30.88 23.4365 31.303 22.4639 31.2918 20.6192C31.2908 20.3138 31.2897 20.0085 31.2886 19.6939C31.2859 19.3759 31.2832 19.0579 31.2804 18.7303C31.2789 18.4086 31.2774 18.0869 31.2759 17.7554C31.2721 16.961 31.2667 16.1667 31.26 15.3723C29.9843 15.9007 28.7091 16.4301 27.4339 16.9597C27.0721 17.1096 26.7103 17.2595 26.3375 17.4138C25.9891 17.5587 25.6407 17.7035 25.2817 17.8527C24.8009 18.0522 24.8009 18.0522 24.3103 18.2557C23.4638 18.6078 23.4638 18.6078 22.7477 18.9925C21.663 19.5074 20.6896 19.4838 19.5375 19.2798C17.9817 18.722 16.493 18.0298 14.9991 17.3261C14.5904 17.1374 14.1814 16.9491 13.7723 16.7613C13.0298 16.4203 12.2884 16.0771 11.5483 15.731C10.8426 15.3502 10.8426 15.3502 10.42 15.3723Z" fill="#098842"/>
</svg>
