<svg width="18" height="17" viewBox="0 0 18 17" fill="none" xmlns="http://www.w3.org/2000/svg">
<path d="M3.75 13.4583H4.81875L12.15 6.53437L11.0813 5.525L3.75 12.449V13.4583ZM2.25 14.875V11.8646L12.15 2.53229C12.3 2.40243 12.4656 2.30208 12.6469 2.23125C12.8281 2.16042 13.0188 2.125 13.2188 2.125C13.4187 2.125 13.6125 2.16042 13.8 2.23125C13.9875 2.30208 14.15 2.40833 14.2875 2.55L15.3188 3.54167C15.4688 3.67153 15.5781 3.825 15.6469 4.00208C15.7156 4.17917 15.75 4.35625 15.75 4.53333C15.75 4.72222 15.7156 4.90226 15.6469 5.07344C15.5781 5.24462 15.4688 5.40104 15.3188 5.54271L5.4375 14.875H2.25ZM11.6063 6.03854L11.0813 5.525L12.15 6.53437L11.6063 6.03854Z" fill="#919191"/>
</svg>
