<svg width="322" height="262" viewBox="0 0 322 262" fill="none" xmlns="http://www.w3.org/2000/svg">
<path d="M53.4472 0.0390172C54.0871 0.0363223 54.727 0.0336273 55.3863 0.0308507C56.7351 0.0272618 58.0838 0.0269069 59.4326 0.0296512C61.4445 0.0316168 63.4558 0.0169306 65.4677 0.000938899C77.071 -0.0354311 88.5255 0.980278 99.7996 3.84439C100.772 4.08593 100.772 4.08593 101.764 4.33235C111.775 6.89376 121.107 10.3904 130.184 15.3219C130.755 15.6246 130.755 15.6246 131.337 15.9333C141.83 21.5065 153.721 29.8734 160.371 39.8493C162.447 39.1573 162.839 38.7002 164.184 37.0585C183.01 15.0688 210.86 4.51235 238.984 0.857087C239.387 0.802817 239.789 0.748548 240.203 0.692634C244.04 0.213911 247.831 0.126883 251.695 0.122544C252.355 0.120451 253.014 0.118357 253.694 0.116201C255.082 0.113033 256.47 0.111541 257.858 0.111642C259.964 0.110267 262.069 0.0988273 264.175 0.0869222C265.531 0.0850765 266.887 0.0838286 268.243 0.0832372C268.864 0.0787182 269.484 0.0741992 270.124 0.0695432C275.652 0.0874249 281.28 0.262095 285.877 3.61838C288.871 6.97034 288.926 10.3042 288.852 14.5505C288.85 15.1315 288.847 15.7124 288.844 16.311C288.834 18.1565 288.81 20.0015 288.786 21.8468C288.776 23.1022 288.768 24.3575 288.76 25.6129C288.739 28.6814 288.707 31.7497 288.668 34.818C289.681 34.8032 289.681 34.8032 290.714 34.7881C293.242 34.7537 295.771 34.7322 298.299 34.7144C299.389 34.705 300.479 34.6921 301.569 34.6757C303.144 34.6526 304.719 34.642 306.295 34.6338C306.774 34.624 307.254 34.6143 307.748 34.6043C311.722 34.603 315.799 35.2415 318.954 37.8078C319.233 38.1831 319.512 38.5585 319.799 38.9452C320.237 39.5107 320.237 39.5107 320.683 40.0876C322.038 42.0954 322.08 43.3983 322.084 45.8093C322.087 46.5455 322.09 47.2818 322.093 48.0404C322.093 49.2643 322.093 49.2643 322.093 50.513C322.095 51.383 322.097 52.253 322.1 53.1231C322.106 55.5222 322.108 57.9214 322.11 60.3206C322.112 62.9049 322.118 65.4892 322.124 68.0734C322.136 74.3187 322.143 80.5639 322.148 86.8092C322.151 89.7483 322.154 92.6874 322.158 95.6265C322.168 105.394 322.177 115.161 322.182 124.928C322.183 127.464 322.184 129.999 322.186 132.535C322.186 133.165 322.186 133.795 322.187 134.445C322.192 144.658 322.208 154.871 322.228 165.085C322.249 175.564 322.26 186.044 322.262 196.523C322.264 202.41 322.269 208.296 322.285 214.183C322.299 219.195 322.304 224.207 322.298 229.22C322.295 231.778 322.296 234.336 322.308 236.894C322.319 239.236 322.319 241.577 322.309 243.919C322.307 245.168 322.317 246.417 322.328 247.665C322.29 252.882 321.742 255.129 318.109 258.866C315.186 260.685 312.449 261.545 308.998 260.919C308.106 260.679 308.106 260.679 307.196 260.433C306.532 260.257 305.867 260.081 305.182 259.899C304.506 259.714 303.83 259.529 303.133 259.338C301.878 258.999 300.622 258.661 299.367 258.323C298.406 258.063 298.406 258.063 297.425 257.798C266.069 249.423 230.956 244.303 198.734 250.533C198.154 250.637 197.574 250.742 196.976 250.85C186.64 252.738 176.324 255.569 166.672 259.77C161.006 262.233 156.883 260.403 151.441 258.34C135.365 252.253 118.624 248.6 101.374 248.518C100.748 248.514 100.121 248.51 99.4754 248.505C97.4609 248.494 95.4465 248.49 93.4319 248.489C92.7419 248.488 92.0518 248.488 91.3409 248.488C80.6841 248.498 70.2918 248.878 59.7461 250.533C59.0118 250.644 58.2775 250.755 57.521 250.87C43.9257 252.963 30.2441 255.494 17.2114 259.979C12.6385 261.31 8.69068 261.687 4.40236 259.338C2.2526 257.39 0.0802841 255.171 -0.0809866 252.171C-0.0821114 251.531 -0.0832392 250.892 -0.0843981 250.233C-0.0872017 249.497 -0.0900023 248.76 -0.0928909 248.002C-0.0927749 247.186 -0.0926601 246.37 -0.0925406 245.529C-0.0946146 244.659 -0.0969559 243.789 -0.0995459 242.919C-0.105859 240.52 -0.108191 238.121 -0.109857 235.722C-0.112308 233.137 -0.11833 230.553 -0.123825 227.969C-0.136264 221.724 -0.142586 215.478 -0.14818 209.233C-0.150935 206.294 -0.154313 203.355 -0.157609 200.416C-0.168309 190.649 -0.177425 180.882 -0.181979 171.114C-0.18318 168.579 -0.184386 166.043 -0.185616 163.507C-0.18592 162.877 -0.186223 162.247 -0.186537 161.597C-0.191759 151.384 -0.207697 141.171 -0.228118 130.958C-0.248901 120.478 -0.260241 109.998 -0.262252 99.5188C-0.263615 93.6324 -0.269137 87.746 -0.285182 81.8596C-0.298814 76.8472 -0.303908 71.8348 -0.297782 66.8224C-0.294918 64.2643 -0.296152 61.7063 -0.308324 59.1482C-0.319371 56.8065 -0.318822 54.4651 -0.30902 52.1234C-0.306808 50.8745 -0.317005 49.6256 -0.327637 48.3768C-0.278624 41.6304 -0.278623 41.6304 2.51564 38.5915C6.27511 34.9336 10.5994 34.6287 15.5826 34.6952C16.0929 34.697 16.6032 34.6987 17.1289 34.7006C18.7435 34.7076 20.3579 34.7233 21.9724 34.7394C23.0734 34.7457 24.1744 34.7515 25.2754 34.7566C27.961 34.7704 30.6465 34.7921 33.332 34.818C33.3156 34.0442 33.2991 33.2704 33.2821 32.4731C33.225 29.5852 33.189 26.6974 33.1593 23.8091C33.1436 22.5623 33.1221 21.3155 33.0948 20.0688C33.0564 18.2702 33.0388 16.4723 33.025 14.6734C33.0087 14.1216 32.9925 13.5698 32.9758 13.0012C32.974 9.02955 33.9694 6.46274 36.4766 3.37271C40.6964 -0.350681 48.1162 0.0338641 53.4472 0.0390172ZM55.3438 22.2399C55.3438 77.2377 55.3438 132.236 55.3438 188.9C61.5699 189.108 67.7961 189.315 74.211 189.529C100.85 192.007 126.352 198.858 147.255 216.26C148.381 217.236 148.381 217.236 149.68 217.83C149.823 198.27 149.935 178.711 150.001 159.152C150.009 156.839 150.017 154.526 150.025 152.214C150.027 151.753 150.028 151.293 150.03 150.819C150.057 143.378 150.107 135.938 150.165 128.497C150.224 120.855 150.259 113.212 150.271 105.57C150.28 100.859 150.307 96.1487 150.358 91.438C150.396 87.8173 150.399 84.1971 150.391 80.5761C150.393 79.0971 150.405 77.618 150.429 76.1392C150.573 66.8915 149.838 61.1407 143.391 54.3141C142.804 53.6305 142.221 52.9435 141.642 52.2529C124.78 32.3887 98.0522 24.3182 72.9531 22.2399C67.142 22.2399 61.331 22.2399 55.3438 22.2399ZM183.012 49.2829C180.541 51.8708 178.242 54.5975 176.094 57.4587C175.776 57.8581 175.458 58.2576 175.131 58.6691C172.378 62.3805 171.781 65.1112 171.867 69.6729C171.863 70.3095 171.86 70.9461 171.857 71.602C171.851 73.7229 171.871 75.8426 171.892 77.9634C171.893 79.4884 171.892 81.0135 171.89 82.5385C171.889 85.8155 171.9 89.0922 171.921 92.3691C171.952 97.1068 171.962 101.844 171.967 106.582C171.975 114.27 172 121.958 172.036 129.645C172.07 137.111 172.097 144.576 172.113 152.041C172.114 152.502 172.115 152.962 172.116 153.437C172.121 155.748 172.126 158.059 172.13 160.37C172.17 179.523 172.236 198.676 172.32 217.83C173.118 217.232 173.916 216.635 174.714 216.037C175.158 215.704 175.602 215.371 176.06 215.028C177.147 214.211 178.226 213.384 179.305 212.555C204.915 193.437 235.583 189.936 266.656 188.9C266.656 133.902 266.656 78.9044 266.656 22.2399C236.087 22.2399 205.666 27.0999 183.012 49.2829ZM22.0117 57.4587C22.0117 115.985 22.0117 174.511 22.0117 234.81C26.0603 234.074 30.0591 233.325 34.0733 232.451C46.9113 229.672 59.8596 227.691 72.9531 226.634C73.5864 226.58 73.5864 226.58 74.2325 226.524C88.8967 225.292 103.608 225.891 118.234 227.263C119.543 227.382 120.852 227.501 122.16 227.62C123.158 227.71 124.155 227.801 125.152 227.892C114.255 216.374 91.8233 213.15 76.7266 211.541C76.1015 211.47 75.4765 211.4 74.8325 211.327C66.8522 210.565 58.6474 210.579 50.6515 211.121C49.8479 211.175 49.8479 211.175 49.028 211.23C48.0304 211.304 47.0334 211.387 46.0376 211.483C42.1285 211.782 39.3607 211.017 36.28 208.435C34.5836 206.362 33.805 204.703 33.7964 202.015C33.7917 201.497 33.787 200.98 33.7821 200.446C33.7833 199.881 33.7846 199.316 33.7858 198.733C33.7822 198.13 33.7785 197.527 33.7748 196.906C33.7641 194.88 33.7623 192.854 33.7604 190.828C33.7546 189.378 33.7482 187.927 33.7413 186.477C33.7241 182.535 33.7146 178.593 33.7064 174.651C33.6966 170.533 33.6798 166.415 33.6636 162.297C33.6373 155.384 33.6158 148.471 33.5974 141.558C33.5784 134.437 33.5568 127.316 33.5317 120.196C33.5301 119.757 33.5286 119.318 33.527 118.866C33.5192 116.664 33.5113 114.462 33.5035 112.26C33.4383 93.9929 33.3826 75.7258 33.332 57.4587C29.5963 57.4587 25.8606 57.4587 22.0117 57.4587ZM288.668 57.4587C288.666 59.2926 288.663 61.1265 288.661 63.0159C288.639 79.8364 288.604 96.6569 288.556 113.477C288.55 115.682 288.544 117.887 288.537 120.092C288.536 120.751 288.536 120.751 288.534 121.422C288.514 128.528 288.504 135.634 288.496 142.74C288.488 150.032 288.471 157.324 288.445 164.617C288.431 168.712 288.421 172.807 288.422 176.903C288.422 180.758 288.411 184.612 288.391 188.466C288.385 189.881 288.384 191.296 288.388 192.711C288.392 194.643 288.381 196.574 288.365 198.506C288.37 199.066 288.375 199.626 288.38 200.203C288.33 203.866 287.647 206.017 285.523 209.025C281.986 211.678 278.899 211.569 274.636 211.266C248.665 209.701 218.887 211.9 196.848 227.263C199.213 228.052 201.119 227.676 203.53 227.342C232.664 223.677 262.375 226.742 290.91 233.103C293.925 233.73 296.959 234.259 299.988 234.81C299.988 176.284 299.988 117.758 299.988 57.4587C296.253 57.4587 292.517 57.4587 288.668 57.4587Z" fill="#098842"/>
</svg>
