<svg width="24" height="26" viewBox="0 0 24 26" fill="none" xmlns="http://www.w3.org/2000/svg">
<g clip-path="url(#clip0_428_357)">
<path d="M23 4.33321V10.8332M23 10.8332H17M23 10.8332L18.36 6.10988C17.2853 4.94498 15.9556 4.09402 14.4952 3.63638C13.0348 3.17875 11.4911 3.12936 10.0083 3.49282C8.52547 3.85629 7.1518 4.62076 6.01547 5.71491C4.87913 6.80906 4.01717 8.19723 3.51 9.74988M1 21.6665V15.1665M1 15.1665H7M1 15.1665L5.64 19.8899C6.71475 21.0548 8.04437 21.9057 9.50481 22.3634C10.9652 22.821 12.5089 22.8704 13.9917 22.5069C15.4745 22.1435 16.8482 21.379 17.9845 20.2848C19.1209 19.1907 19.9828 17.8025 20.49 16.2499" stroke="#098842" stroke-width="4" stroke-linecap="round" stroke-linejoin="round"/>
</g>
<defs>
<clipPath id="clip0_428_357">
<rect width="24" height="26" fill="white"/>
</clipPath>
</defs>
</svg>
