<svg width="71" height="71" viewBox="0 0 71 71" fill="none" xmlns="http://www.w3.org/2000/svg">
<path d="M34 0.0171913C34.2316 0.0115182 34.4632 0.00584504 34.7019 0C35.7204 0.424078 36.1378 1.23731 36.8076 2.49274C36.9842 3.78833 36.9842 3.78833 36.9858 5.24871C36.9918 6.08167 36.9918 6.08167 36.9978 6.93145C36.995 7.53736 36.9921 8.14328 36.9892 8.76755C36.9917 9.40822 36.9941 10.0489 36.9967 10.709C37.0028 12.8298 36.9987 14.9501 36.994 17.0709C36.9949 18.5426 36.9963 20.0142 36.9981 21.4859C37.0006 24.5714 36.9973 27.6568 36.9906 30.7423C36.9829 34.3085 36.9854 37.8745 36.9931 41.4407C36.9995 44.5037 37.0004 47.5666 36.9967 50.6296C36.9945 52.4586 36.9948 54.2873 36.9989 56.1162C37.0024 58.1552 36.997 60.1936 36.9892 62.2324C36.992 62.8384 36.9949 63.4443 36.9978 64.0686C36.9938 64.6239 36.9899 65.1792 36.9858 65.7513C36.9853 66.2332 36.9848 66.7151 36.9842 67.2117C36.7491 68.9358 36.2603 69.6045 35.4038 70.7077C34.7019 71 34.7019 71 34 70.9828C33.7684 70.9885 33.5368 70.9942 33.2981 71C32.2796 70.5759 31.8622 69.7627 31.1924 68.5073C31.0158 67.2117 31.0158 67.2117 31.0142 65.7513C31.0082 64.9183 31.0082 64.9183 31.0022 64.0686C31.0065 63.1597 31.0065 63.1597 31.0108 62.2324C31.0083 61.5918 31.0059 60.9511 31.0033 60.291C30.9972 58.1702 31.0013 56.0499 31.006 53.9291C31.0051 52.4574 31.0037 50.9858 31.0019 49.5141C30.9994 46.4286 31.0027 43.3432 31.0094 40.2577C31.0171 36.6915 31.0146 33.1255 31.0069 29.5593C31.0005 26.4963 30.9996 23.4334 31.0033 20.3704C31.0055 18.5414 31.0052 16.7127 31.0011 14.8838C30.9976 12.8448 31.003 10.8064 31.0108 8.76755C31.008 8.16164 31.0051 7.55572 31.0022 6.93145C31.0062 6.37614 31.0101 5.82084 31.0142 5.24871C31.0147 4.76679 31.0152 4.28486 31.0158 3.78833C31.3499 1.3383 32.4179 -0.0215578 34 0.0171913Z" fill="#098842"/>
<path d="M47 11.0172C47.2316 11.0115 47.4632 11.0058 47.7019 11C48.7551 11.4386 49.1393 12.1472 49.8076 13.493C49.9461 14.986 49.9998 16.2562 49.9892 17.7482C49.9917 18.1743 49.9941 18.6004 49.9966 19.0394C50.0028 20.446 49.9987 21.852 49.994 23.2586C49.9949 24.237 49.9963 25.2154 49.9981 26.1938C50.0001 28.2436 49.9971 30.2932 49.9906 32.3429C49.9826 34.9702 49.9872 37.5969 49.9956 40.2241C50.0007 42.2443 49.999 44.2642 49.9954 46.2844C49.9945 47.253 49.9956 48.2217 49.9989 49.1904C50.0024 50.5445 49.997 51.8977 49.9892 53.2518C49.992 53.6519 49.9949 54.0521 49.9978 54.4645C49.9775 56.359 49.8905 57.3401 49.1382 58.8551C48.3414 59.7802 47.979 60.0068 47 59.9828C46.7684 59.9885 46.5368 59.9942 46.2981 60C45.2449 59.5614 44.8607 58.8528 44.1924 57.507C44.0539 56.014 44.0002 54.7438 44.0108 53.2518C44.0083 52.8257 44.0059 52.3996 44.0034 51.9606C43.9972 50.554 44.0013 49.148 44.006 47.7414C44.0051 46.763 44.0037 45.7846 44.0019 44.8062C43.9999 42.7564 44.0029 40.7068 44.0094 38.6571C44.0174 36.0298 44.0128 33.4031 44.0044 30.7759C43.9993 28.7557 44.001 26.7358 44.0046 24.7156C44.0055 23.747 44.0044 22.7783 44.0011 21.8096C43.9976 20.4555 44.003 19.1023 44.0108 17.7482C44.008 17.3481 44.0051 16.9479 44.0022 16.5355C44.0225 14.641 44.1095 13.6599 44.8618 12.1449C45.6586 11.2198 46.021 10.9932 47 11.0172Z" fill="#098842"/>
<path d="M7 13.0173C7.23162 13.0116 7.46325 13.0059 7.70189 13C8.74496 13.4383 9.13955 14.1835 9.80755 15.5154C9.98581 17.2849 9.98581 17.2849 9.98919 19.4013C9.99165 19.7879 9.99411 20.1745 9.99665 20.5728C10.0028 21.8479 9.99874 23.1223 9.99399 24.3975C9.99494 25.2851 9.9963 26.1727 9.99806 27.0603C10.0001 28.9195 9.99713 30.7785 9.99057 32.6376C9.98257 35.0197 9.98717 37.4012 9.99558 39.7833C10.0007 41.6158 9.99904 43.4483 9.9954 45.2809C9.99446 46.1591 9.99561 47.0373 9.99888 47.9156C10.0025 49.1436 9.99701 50.3707 9.98919 51.5987C9.98752 52.6463 9.98752 52.6463 9.98581 53.7151C9.7765 55.7928 9.44778 56.4458 8.40378 57.7051C7.70189 58 7.70189 58 7 57.9827C6.76838 57.9884 6.53675 57.9941 6.29811 58C5.25504 57.5617 4.86045 56.8165 4.19245 55.4846C4.01419 53.7151 4.01419 53.7151 4.01081 51.5987C4.00835 51.2121 4.00589 50.8255 4.00335 50.4272C3.99718 49.1521 4.00126 47.8777 4.00601 46.6025C4.00506 45.7149 4.0037 44.8273 4.00194 43.9397C3.99987 42.0805 4.00287 40.2215 4.00943 38.3624C4.01743 35.9803 4.01283 33.5988 4.00442 31.2167C3.99934 29.3842 4.00096 27.5517 4.0046 25.7191C4.00553 24.8409 4.00439 23.9627 4.00112 23.0844C3.99755 21.8564 4.00299 20.6293 4.01081 19.4013C4.01192 18.7029 4.01304 18.0045 4.01419 17.2849C4.28926 14.5544 5.21082 12.9731 7 13.0173Z" fill="#098842"/>
<path d="M60 22.0172C60.2314 22.0115 60.4628 22.0058 60.7013 22C61.772 22.4464 62.1358 23.1012 62.8051 24.4936C63.0159 26.1431 63.0017 27.7686 62.9914 29.4465C62.9927 29.9268 62.9941 30.407 62.9955 30.9018C62.9964 31.9158 62.9938 32.9297 62.988 33.9436C62.9805 35.4948 62.9879 37.0445 62.9969 38.5955C62.9959 39.5815 62.9942 40.5675 62.9914 41.5535C62.9942 42.0167 62.9971 42.48 63 42.9572C62.9672 46.1691 62.9672 46.1691 62.136 47.8983C61.342 48.7745 60.9604 49.0064 60 48.9828C59.6529 48.9913 59.6529 48.9913 59.2987 49C58.228 48.5536 57.8642 47.8988 57.1949 46.5064C56.9841 44.8569 56.9983 43.2314 57.0086 41.5535C57.0073 41.0732 57.0059 40.593 57.0045 40.0982C57.0036 39.0842 57.0062 38.0703 57.012 37.0564C57.0195 35.5053 57.0121 33.9555 57.0031 32.4045C57.0041 31.4185 57.0058 30.4325 57.0086 29.4465C57.0058 28.9833 57.0029 28.52 57 28.0428C57.0328 24.8309 57.0328 24.8309 57.864 23.1017C58.658 22.2255 59.0396 21.9936 60 22.0172Z" fill="#098842"/>
<path d="M20 22.0172C20.2314 22.0115 20.4628 22.0058 20.7013 22C21.772 22.4464 22.1358 23.1012 22.8051 24.4936C23.0159 26.1431 23.0017 27.7686 22.9914 29.4465C22.9927 29.9268 22.9941 30.407 22.9955 30.9018C22.9964 31.9158 22.9938 32.9297 22.988 33.9436C22.9805 35.4948 22.9879 37.0445 22.9969 38.5955C22.9959 39.5815 22.9942 40.5675 22.9914 41.5535C22.9942 42.0167 22.9971 42.48 23 42.9572C22.9672 46.1691 22.9672 46.1691 22.136 47.8983C21.342 48.7745 20.9604 49.0064 20 48.9828C19.6529 48.9913 19.6529 48.9913 19.2987 49C18.228 48.5536 17.8642 47.8988 17.1949 46.5064C16.9841 44.8569 16.9983 43.2314 17.0086 41.5535C17.0073 41.0732 17.0059 40.593 17.0045 40.0982C17.0036 39.0842 17.0062 38.0703 17.012 37.0564C17.0195 35.5053 17.0121 33.9555 17.0031 32.4045C17.0041 31.4185 17.0058 30.4325 17.0086 29.4465C17.0058 28.9833 17.0029 28.52 17 28.0428C17.0328 24.8309 17.0328 24.8309 17.864 23.1017C18.658 22.2255 19.0396 21.9936 20 22.0172Z" fill="#098842"/>
</svg>
