<svg width="128" height="128" viewBox="0 0 128 128" fill="none" xmlns="http://www.w3.org/2000/svg">
<path d="M9.35715 -0.790283C15.4537 1.03274 19.7376 6.66815 24.0352 11.1562C25.1637 12.3016 26.2943 13.445 27.4269 14.5865C30.3915 17.5854 33.3282 20.6104 36.2596 23.6417C39.2601 26.7344 42.2864 29.8016 45.3105 32.8711C51.2326 38.8894 57.1252 44.9355 63 51C66.736 49.4508 69.0199 47.17 71.8093 44.2749C72.2734 43.7967 72.7374 43.3185 73.2155 42.8258C74.2199 41.7905 75.2221 40.7531 76.2224 39.7139C77.81 38.0683 79.4067 36.4321 81.0069 34.7987C85.5554 30.1558 90.1 25.5097 94.6057 20.8252C97.3659 17.9569 100.148 15.1112 102.945 12.279C104.004 11.1987 105.054 10.1102 106.096 9.01347C115.267 -0.629251 115.267 -0.629251 121.029 -0.853027C123.536 -0.63261 124.697 -0.234108 126.693 1.30736C128.767 3.99271 128.921 6.01426 128.79 9.35715C126.967 15.4537 121.332 19.7376 116.844 24.0352C115.698 25.1637 114.555 26.2943 113.413 27.4269C110.415 30.3915 107.39 33.3282 104.358 36.2596C101.266 39.2601 98.1984 42.2864 95.1289 45.3105C89.1106 51.2326 83.0645 57.1252 77 63C78.5492 66.736 80.83 69.0199 83.7251 71.8093C84.2033 72.2734 84.6815 72.7374 85.1742 73.2155C86.2095 74.2199 87.2469 75.2221 88.2861 76.2224C89.9317 77.81 91.5679 79.4067 93.2013 81.0069C97.8442 85.5554 102.49 90.1 107.175 94.6057C110.043 97.3659 112.889 100.148 115.721 102.945C116.801 104.004 117.89 105.054 118.987 106.096C128.629 115.267 128.629 115.267 128.853 121.029C128.633 123.536 128.234 124.697 126.693 126.693C124.007 128.767 121.986 128.921 118.643 128.79C112.546 126.967 108.262 121.332 103.965 116.844C102.836 115.698 101.706 114.555 100.573 113.413C97.6085 110.415 94.6718 107.39 91.7404 104.358C88.7399 101.266 85.7136 98.1984 82.6895 95.1289C76.7674 89.1106 70.8748 83.0645 65 77C61.264 78.5492 58.9801 80.83 56.1907 83.7251C55.7266 84.2033 55.2626 84.6815 54.7845 85.1742C53.7801 86.2095 52.7779 87.2469 51.7776 88.2861C50.19 89.9317 48.5933 91.5679 46.9931 93.2013C42.4446 97.8442 37.9 102.49 33.3943 107.175C30.6341 110.043 27.8523 112.889 25.0551 115.721C23.9963 116.801 22.9457 117.89 21.9039 118.987C12.7326 128.629 12.7326 128.629 6.97144 128.853C4.46398 128.633 3.30315 128.234 1.30708 126.693C-0.766582 124.007 -0.920698 121.986 -0.790283 118.643C1.03274 112.546 6.66815 108.262 11.1562 103.965C12.3016 102.836 13.445 101.706 14.5865 100.573C17.5854 97.6085 20.6104 94.6718 23.6417 91.7404C26.7344 88.7399 29.8016 85.7136 32.8711 82.6895C38.8894 76.7674 44.9355 70.8748 51 65C49.4508 61.264 47.17 58.9801 44.2749 56.1907C43.7967 55.7266 43.3185 55.2626 42.8258 54.7845C41.7905 53.7801 40.7531 52.7779 39.7139 51.7776C38.0683 50.19 36.4321 48.5933 34.7987 46.9931C30.1558 42.4446 25.5097 37.9 20.8252 33.3943C17.9569 30.6341 15.1112 27.8523 12.279 25.0551C11.1987 23.9963 10.1102 22.9457 9.01347 21.9039C-0.629251 12.7326 -0.629251 12.7326 -0.853027 6.97144C-0.63261 4.46398 -0.234108 3.30315 1.30736 1.30708C3.99271 -0.766582 6.01426 -0.920698 9.35715 -0.790283Z" fill="white"/>
</svg>
