<svg width="26" height="26" viewBox="0 0 26 26" fill="none" xmlns="http://www.w3.org/2000/svg">
<path d="M11.917 18.4167H14.0837V14.0834H18.417V11.9167H14.0837V7.58341H11.917V11.9167H7.58366V14.0834H11.917V18.4167ZM13.0003 23.8334C11.5017 23.8334 10.0934 23.5536 8.77533 22.9938C7.45727 22.4161 6.31074 21.6397 5.33574 20.6647C4.36074 19.6897 3.58435 18.5431 3.00658 17.2251C2.44685 15.907 2.16699 14.4987 2.16699 13.0001C2.16699 11.5015 2.44685 10.0931 3.00658 8.77508C3.58435 7.45702 4.36074 6.3105 5.33574 5.3355C6.31074 4.3605 7.45727 3.59314 8.77533 3.03341C10.0934 2.45564 11.5017 2.16675 13.0003 2.16675C14.4989 2.16675 15.9073 2.45564 17.2253 3.03341C18.5434 3.59314 19.6899 4.3605 20.6649 5.3355C21.6399 6.3105 22.4073 7.45702 22.967 8.77508C23.5448 10.0931 23.8337 11.5015 23.8337 13.0001C23.8337 14.4987 23.5448 15.907 22.967 17.2251C22.4073 18.5431 21.6399 19.6897 20.6649 20.6647C19.6899 21.6397 18.5434 22.4161 17.2253 22.9938C15.9073 23.5536 14.4989 23.8334 13.0003 23.8334ZM13.0003 21.6667C15.4198 21.6667 17.4691 20.8272 19.1482 19.148C20.8274 17.4688 21.667 15.4195 21.667 13.0001C21.667 10.5806 20.8274 8.53133 19.1482 6.85216C17.4691 5.173 15.4198 4.33341 13.0003 4.33341C10.5809 4.33341 8.53158 5.173 6.85241 6.85216C5.17324 8.53133 4.33366 10.5806 4.33366 13.0001C4.33366 15.4195 5.17324 17.4688 6.85241 19.148C8.53158 20.8272 10.5809 21.6667 13.0003 21.6667Z" fill="#686464"/>
</svg>
