<svg width="19" height="23" viewBox="0 0 19 23" fill="none" xmlns="http://www.w3.org/2000/svg">
<path d="M7.28741 0C6.43177 0 5.72741 0.650182 5.72741 1.44V2.4H1.64764C1.61844 2.3955 1.58888 2.3933 1.55928 2.39344C1.53409 2.39394 1.50897 2.39613 1.48412 2.4H0.527406C0.4585 2.3991 0.390087 2.41085 0.326144 2.43457C0.2622 2.45829 0.204001 2.4935 0.154929 2.53816C0.105857 2.58282 0.06689 2.63604 0.0402932 2.69473C0.0136964 2.75341 0 2.81639 0 2.88C0 2.94361 0.0136964 3.00659 0.0402932 3.06527C0.06689 3.12396 0.105857 3.17718 0.154929 3.22184C0.204001 3.2665 0.2622 3.30171 0.326144 3.32543C0.390087 3.34915 0.4585 3.3609 0.527406 3.36H1.04741V20.64C1.04741 21.4298 1.75177 22.08 2.60741 22.08H16.1274C16.983 22.08 17.6874 21.4298 17.6874 20.64V3.36H18.2074C18.2763 3.3609 18.3447 3.34915 18.4087 3.32543C18.4726 3.30171 18.5308 3.2665 18.5799 3.22184C18.629 3.17718 18.6679 3.12396 18.6945 3.06527C18.7211 3.00659 18.7348 2.94361 18.7348 2.88C18.7348 2.81639 18.7211 2.75341 18.6945 2.69473C18.6679 2.63604 18.629 2.58282 18.5799 2.53816C18.5308 2.4935 18.4726 2.45829 18.4087 2.43457C18.3447 2.41085 18.2763 2.3991 18.2074 2.4H17.2547C17.1986 2.39143 17.1413 2.39143 17.0851 2.4H13.0074V1.44C13.0074 0.650182 12.303 0 11.4474 0H7.28741ZM7.28741 0.96H11.4474C11.7358 0.96 11.9674 1.17382 11.9674 1.44V2.4H6.76741V1.44C6.76741 1.17382 6.99904 0.96 7.28741 0.96ZM2.08741 3.36H6.16006C6.21622 3.36857 6.27352 3.36857 6.32967 3.36H12.4001C12.4562 3.36857 12.5135 3.36857 12.5697 3.36H16.6474V20.64C16.6474 20.9062 16.4158 21.12 16.1274 21.12H2.60741C2.31904 21.12 2.08741 20.9062 2.08741 20.64V3.36ZM6.23928 5.75344C6.10155 5.75542 5.97029 5.80777 5.87433 5.89899C5.77836 5.99022 5.72552 6.11286 5.72741 6.24V18.24C5.72643 18.3036 5.73916 18.3668 5.76486 18.4258C5.79055 18.4848 5.8287 18.5385 5.87708 18.5838C5.92547 18.6291 5.98312 18.6651 6.04669 18.6896C6.11027 18.7142 6.17849 18.7268 6.24741 18.7268C6.31632 18.7268 6.38454 18.7142 6.44812 18.6896C6.51169 18.6651 6.56935 18.6291 6.61773 18.5838C6.66611 18.5385 6.70426 18.4848 6.72995 18.4258C6.75565 18.3668 6.76838 18.3036 6.76741 18.24V6.24C6.76836 6.17578 6.75534 6.11204 6.72913 6.05255C6.70291 5.99306 6.66403 5.93902 6.61478 5.89365C6.56553 5.84828 6.50693 5.8125 6.44243 5.78841C6.37793 5.76433 6.30885 5.75243 6.23928 5.75344ZM9.35928 5.75344C9.22155 5.75542 9.09029 5.80777 8.99432 5.89899C8.89836 5.99022 8.84552 6.11286 8.84741 6.24V18.24C8.84643 18.3036 8.85916 18.3668 8.88486 18.4258C8.91055 18.4848 8.9487 18.5385 8.99708 18.5838C9.04547 18.6291 9.10312 18.6651 9.16669 18.6896C9.23027 18.7142 9.29849 18.7268 9.36741 18.7268C9.43632 18.7268 9.50455 18.7142 9.56812 18.6896C9.63169 18.6651 9.68935 18.6291 9.73773 18.5838C9.78611 18.5385 9.82426 18.4848 9.84995 18.4258C9.87565 18.3668 9.88838 18.3036 9.88741 18.24V6.24C9.88836 6.17578 9.87534 6.11204 9.84912 6.05255C9.82291 5.99306 9.78403 5.93902 9.73478 5.89365C9.68553 5.84828 9.62693 5.8125 9.56243 5.78841C9.49793 5.76433 9.42885 5.75243 9.35928 5.75344ZM12.4793 5.75344C12.3415 5.75542 12.2103 5.80777 12.1143 5.89899C12.0184 5.99022 11.9655 6.11286 11.9674 6.24V18.24C11.9664 18.3036 11.9792 18.3668 12.0049 18.4258C12.0306 18.4848 12.0687 18.5385 12.1171 18.5838C12.1655 18.6291 12.2231 18.6651 12.2867 18.6896C12.3503 18.7142 12.4185 18.7268 12.4874 18.7268C12.5563 18.7268 12.6245 18.7142 12.6881 18.6896C12.7517 18.6651 12.8093 18.6291 12.8577 18.5838C12.9061 18.5385 12.9443 18.4848 12.97 18.4258C12.9956 18.3668 13.0084 18.3036 13.0074 18.24V6.24C13.0084 6.17578 12.9953 6.11204 12.9691 6.05255C12.9429 5.99306 12.904 5.93902 12.8548 5.89365C12.8055 5.84828 12.7469 5.8125 12.6824 5.78841C12.6179 5.76433 12.5488 5.75243 12.4793 5.75344Z" fill="#279658"/>
</svg>
