<svg width="48" height="48" viewBox="0 0 48 48" fill="none" xmlns="http://www.w3.org/2000/svg">
<g clip-path="url(#clip0_740_243)">
<path d="M37.6348 1.0896C39.6549 2.27433 40.877 3.75575 41.625 5.99976C41.6596 6.56141 41.6737 7.12454 41.6719 7.68726C41.6733 8.12232 41.6733 8.12232 41.6748 8.56616C41.625 9.37476 41.625 9.37476 41.25 10.4998C41.6831 10.5694 42.1162 10.639 42.5625 10.7107C44.5431 11.2006 45.9037 12.3768 47.25 13.8748C47.8658 14.9275 48.0943 15.6942 48.097 16.9101C48.0994 17.2079 48.1018 17.5057 48.1042 17.8125C48.1019 18.2895 48.1019 18.2895 48.0996 18.7761C48.1003 19.1052 48.101 19.4342 48.1018 19.7732C48.1023 20.4673 48.1009 21.1614 48.0978 21.8554C48.0937 22.9204 48.0977 23.9851 48.1025 25.0501C48.102 25.7244 48.1011 26.3987 48.0996 27.073C48.1011 27.3925 48.1026 27.7121 48.1042 28.0413C48.0862 30.2885 48.0862 30.2885 47.25 31.1248C46.125 31.2185 46.125 31.2185 45 31.1248C43.9477 30.0725 44.1318 29.0693 44.1211 27.6604C44.1156 27.3912 44.1101 27.1221 44.1045 26.8447C44.087 25.9824 44.0742 25.12 44.0625 24.2576C44.047 23.1261 44.0269 21.9949 44.0039 20.8635C44.0009 20.4755 44.0009 20.4755 43.9979 20.0797C43.9587 18.1678 43.7523 16.7521 42.375 15.3748C40.5804 14.7817 38.6683 14.8264 36.7969 14.7654C36.429 14.7388 36.0611 14.7122 35.6821 14.6848C34.568 14.6562 33.6931 14.6749 32.625 14.9998C31.8503 15.8157 31.3638 16.5975 30.8555 17.5989C30.375 18.3748 30.375 18.3748 28.9922 18.8435C27.75 18.7498 27.75 18.7498 27.0234 18.3279C26.4951 17.3955 26.4928 16.807 26.625 15.7498C26.8725 15.3785 27.12 15.0073 27.375 14.6248C26.1638 14.6662 24.953 14.7151 23.7422 14.7654C23.4002 14.777 23.0582 14.7886 22.7058 14.8005C20.2454 14.8597 20.2454 14.8597 18 15.7498C16.9751 17.1582 16.7343 18.1447 16.7354 19.8733C16.733 20.3176 16.7307 20.7618 16.7283 21.2196C16.7317 21.6962 16.7352 22.1728 16.7388 22.6638C16.7386 23.1561 16.7384 23.6484 16.7382 24.1557C16.7382 25.1959 16.7421 26.236 16.7489 27.2762C16.7574 28.6065 16.7576 29.9367 16.7551 31.267C16.7535 32.5399 16.758 33.8128 16.7622 35.0857C16.7619 35.5623 16.7615 36.0389 16.7612 36.5299C16.7647 36.9742 16.7683 37.4185 16.772 37.8762C16.7737 38.2661 16.7754 38.656 16.7772 39.0577C16.8811 40.1916 17.1003 40.9909 17.625 41.9998C18.8805 42.8367 19.3223 42.8516 20.7923 42.8766C21.2104 42.885 21.6286 42.8934 22.0595 42.9021C22.5118 42.9064 22.9641 42.9108 23.4302 42.9153C23.8959 42.9205 24.3616 42.9256 24.8415 42.9309C25.8285 42.9397 26.8154 42.9464 27.8024 42.9505C28.8113 42.9555 29.8195 42.9685 30.8281 42.989C32.2842 43.0165 33.7395 43.0264 35.1958 43.0325C35.8686 43.0493 35.8686 43.0493 36.555 43.0664C39.2219 43.0524 40.6872 42.7037 42.5891 40.7849C43.2322 39.9927 43.6275 39.2744 43.9219 38.2966C44.2515 37.4368 44.2515 37.4368 44.625 36.7498C45.7734 36.3044 45.7734 36.3044 46.875 36.3748C48 37.1248 48 37.1248 48.1626 37.844C48.1685 41.2861 46.6557 43.0901 44.3232 45.4509C42.6178 46.8469 41.1002 47.3901 38.9079 47.4013C38.4523 47.406 37.9966 47.4108 37.5272 47.4157C37.0397 47.4146 36.5521 47.4135 36.0498 47.4124C35.5389 47.4141 35.0281 47.4161 34.5172 47.4183C33.4486 47.4217 32.3801 47.4208 31.3116 47.417C29.9489 47.4127 28.5867 47.4203 27.2241 47.4312C26.1694 47.4382 25.1149 47.438 24.0602 47.4359C23.3158 47.4358 22.5714 47.4421 21.827 47.4486C19.1294 47.4278 17.2688 47.2586 15 45.7498C14.642 45.3254 14.2966 44.8898 13.9687 44.4417C12.5017 42.5836 10.4509 42.1831 8.24999 41.5544C2.48721 39.8458 2.48721 39.8458 0.609364 37.5232C-0.964312 34.4341 0.0049355 30.5513 0.990658 27.4284C1.1336 27.0012 1.27654 26.5741 1.42382 26.134C1.57008 25.6802 1.71635 25.2263 1.86705 24.7586C2.17522 23.8073 2.48586 22.8573 2.8015 21.9084C3.20389 20.6983 3.59675 19.4854 3.98652 18.2711C4.36272 17.1018 4.74491 15.9343 5.12694 14.7668C5.26685 14.3344 5.40675 13.902 5.5509 13.4564C7.14402 8.68355 7.14402 8.68355 9.11132 7.24488C9.41489 7.09696 9.71847 6.94904 10.0312 6.79663C10.3309 6.64291 10.6307 6.48919 10.9394 6.33081C13.3564 5.57636 15.5487 6.03455 17.8916 6.82007C18.1519 6.90331 18.4122 6.98654 18.6805 7.0723C19.5019 7.33573 20.3213 7.60496 21.1406 7.87476C21.9683 8.14339 22.7964 8.4108 23.6249 8.67722C24.1379 8.84261 24.6504 9.00949 25.1624 9.17801C26.4299 9.60715 26.4299 9.60715 27.75 9.74976C27.7304 9.34225 27.7304 9.34225 27.7104 8.92652C27.6043 5.13727 27.6043 5.13727 28.875 3.37476C31.3235 0.920498 34.1929 -0.232454 37.6348 1.0896ZM31.875 6.37476C31.634 7.87439 31.6353 8.64024 32.4844 9.91382C33.6588 10.6865 34.2433 10.7535 35.625 10.4998C36.7812 9.78101 36.7812 9.78101 37.5 8.62476C37.5251 7.16738 37.4579 6.36839 36.4687 5.2732C34.5349 4.35998 33.2863 4.80217 31.875 6.37476ZM11.0487 11.3097C9.87155 12.7901 9.43428 14.6414 8.88573 16.4251C8.74742 16.8564 8.6091 17.2878 8.46659 17.7323C8.17634 18.643 7.88974 19.5549 7.60656 20.4679C7.17375 21.8609 6.7285 23.2493 6.28124 24.6377C6.00022 25.5249 5.71992 26.4124 5.44042 27.3001C5.30803 27.7134 5.17564 28.1268 5.03925 28.5527C4.36841 30.7353 3.91235 32.5888 4.12499 34.8748C5.15941 36.4515 6.72804 36.8746 8.46093 37.406C8.71302 37.4887 8.96511 37.5713 9.22484 37.6565C10.3161 38.0055 11.2227 38.2498 12.375 38.2498C12.378 37.998 12.3811 37.7463 12.3842 37.4869C12.4165 34.8588 12.4539 32.2307 12.494 29.6026C12.5083 28.6228 12.5214 27.6429 12.5332 26.663C12.5504 25.2518 12.5721 23.8406 12.5947 22.4294C12.6012 21.776 12.6012 21.776 12.6078 21.1093C12.7149 15.1776 12.7149 15.1776 14.625 13.1482C14.8183 12.936 15.0117 12.7238 15.2109 12.5051C15.75 11.9998 15.75 11.9998 16.5 11.6248C16.5 11.3773 16.5 11.1298 16.5 10.8748C14.3428 10.0903 12.8902 9.65569 11.0487 11.3097Z" fill="#098842"/>
<path d="M26.8593 23.1506C27.138 23.1499 27.4167 23.1492 27.7039 23.1484C28.2927 23.1479 28.8815 23.1493 29.4703 23.1524C30.3716 23.1564 31.2725 23.1525 32.1737 23.1477C32.746 23.1482 33.3182 23.1491 33.8905 23.1506C34.1601 23.1491 34.4296 23.1476 34.7073 23.146C36.0949 23.159 36.689 23.2096 37.8749 24.0002C38.203 24.8908 38.203 24.8908 38.2499 25.8752C37.8793 26.6743 37.8793 26.6743 37.1249 27.3752C36.0678 27.5273 35.1588 27.5857 34.1014 27.5744C33.8061 27.5759 33.5107 27.5773 33.2063 27.5788C32.5822 27.5798 31.9581 27.577 31.334 27.5708C30.3782 27.5627 29.4234 27.5707 28.4677 27.5803C27.8612 27.5793 27.2548 27.5774 26.6483 27.5744C26.2194 27.579 26.2194 27.579 25.7818 27.5836C23.8116 27.5487 23.8116 27.5487 22.8705 26.6743C22.4999 25.8752 22.4999 25.8752 22.5468 24.8908C23.2894 22.875 25.036 23.1403 26.8593 23.1506Z" fill="#098842"/>
<path d="M27.0939 31.7754C27.3546 31.7747 27.6153 31.774 27.8838 31.7732C28.4335 31.7727 28.9832 31.7741 29.5329 31.7772C30.3723 31.7812 31.2115 31.7773 32.0509 31.7725C32.5861 31.773 33.1213 31.7739 33.6564 31.7754C34.1417 31.7762 34.6271 31.7771 35.1271 31.778C36.285 31.868 36.9351 31.9623 37.8752 32.625C38.2267 33.5156 38.2267 33.5156 38.2502 34.5C37.8781 35.2991 37.8781 35.2991 37.1252 36C36.0681 36.1521 35.1591 36.2104 34.1017 36.1992C33.8063 36.2007 33.5109 36.2021 33.2066 36.2036C32.5825 36.2046 31.9584 36.2018 31.3343 36.1956C30.3785 36.1875 29.4237 36.1955 28.4679 36.2051C27.8615 36.2041 27.255 36.2022 26.6486 36.1992C26.2197 36.2038 26.2197 36.2038 25.7821 36.2084C23.8115 36.1735 23.8115 36.1735 22.8722 35.2991C22.5002 34.5 22.5002 34.5 22.5236 33.5156C22.8752 32.625 22.8752 32.625 23.4772 32.2006C24.7075 31.7545 25.7862 31.7777 27.0939 31.7754Z" fill="#098842"/>
</g>
<defs>
<clipPath id="clip0_740_243">
<rect width="48" height="48" fill="white"/>
</clipPath>
</defs>
</svg>
