<svg width="20" height="25" viewBox="0 0 20 25" fill="none" xmlns="http://www.w3.org/2000/svg">
<path d="M0 21.25V18.75H2.5V10C2.5 8.27083 3.02083 6.73958 4.0625 5.40625C5.10417 4.05208 6.45833 3.16667 8.125 2.75V1.875C8.125 1.35417 8.30208 0.916666 8.65625 0.562499C9.03125 0.1875 9.47917 0 10 0C10.5208 0 10.9583 0.1875 11.3125 0.562499C11.6875 0.916666 11.875 1.35417 11.875 1.875V2.75C13.5417 3.16667 14.8958 4.05208 15.9375 5.40625C16.9792 6.73958 17.5 8.27083 17.5 10V18.75H20V21.25H0ZM10 25C9.3125 25 8.71875 24.7604 8.21875 24.2812C7.73958 23.7812 7.5 23.1875 7.5 22.5H12.5C12.5 23.1875 12.25 23.7812 11.75 24.2812C11.2708 24.7604 10.6875 25 10 25ZM5 18.75H15V10C15 8.625 14.5104 7.44792 13.5313 6.46875C12.5521 5.48958 11.375 5 10 5C8.625 5 7.44792 5.48958 6.46875 6.46875C5.48958 7.44792 5 8.625 5 10V18.75Z" fill="#098842"/>
</svg>
